<?xml version="1.0" encoding="UTF-8"?>
<!-- Created with Inkscape (http://www.inkscape.org/) -->
<svg width="512" height="512" version="1.1" viewBox="0 0 512 512" xml:space="preserve" xmlns="http://www.w3.org/2000/svg"><path d="m384.95 422.22c-5.7073 0-14.646-4.0288-16.232-5.9404l-0.4408-0.53113 2.2002-4.6093c1.2101-2.5351 2.3513-4.5404 2.536-4.4561 0.18471 0.0843 1.9965 1.0091 4.0263 2.0552 7.9497 4.0972 18.922 4.5805 22.511 0.99151l1.2695-1.2695v-1.13c0-0.62153-0.23389-1.6433-0.5197-2.2706l-0.51968-1.1406-2.2721-1.0946c-1.2496-0.60202-5.1222-1.8058-8.6057-2.675-3.4835-0.86924-7.762-2.1098-9.5077-2.7569l-3.174-1.1765-2.2399-2.0138c-1.232-1.1076-2.6652-2.8405-3.185-3.8509l-0.94512-1.837-0.19307-3.3501-0.19304-3.3501 1.0067-2.6688 1.0067-2.6688 2.2354-2.3637 2.2355-2.3636 2.72-1.3262c8.4263-4.1084 24.189-3.29 31.815 1.6516l0.95367 0.61798-2.003 4.5607c-1.1016 2.5084-2.0825 4.6435-2.1798 4.7446-0.0972 0.10103-1.4854-0.45427-3.0849-1.2341-7.2513-3.5356-16.849-3.7591-20.366-0.47398l-1.2981 1.2127v1.6368c0 3.6008 1.3862 4.3897 12.491 7.1093 11.296 2.7664 14.91 4.7203 17.322 9.3662l1.1941 2.2999 0.0189 4.0201 0.0189 4.0201-1.0976 2.2334c-0.60368 1.2284-2.0665 3.2034-3.2508 4.3888l-2.1532 2.1553-2.867 1.2999c-4.9956 2.2651-12.233 2.1876-19.232 2.1876zm-327.41-0.72572c-0.20418-0.10938-0.2978-9.8121-0.2978-21.441v-21.143h-16.974v-10.274h47.377l-0.12628 5.0252-0.12627 5.0252-17.197 0.24268v42.862h-6.1791c-3.3985 0-6.2727-0.18838-6.4769-0.29776zm28.29-0.16424c0-0.41957 6.5787-15.005 17.42-38.623 2.2556-4.9135 4.6138-10.094 5.2406-11.513l1.1396-2.5797 13.298 0.24596 3.0599 6.7002c1.683 3.6851 4.4106 9.6148 6.0614 13.177 1.6508 3.5623 3.8672 8.3864 4.9254 10.72 1.0581 2.3339 3.7523 8.143 5.9871 12.909 2.2348 4.7661 4.0632 8.8417 4.0632 9.057v0.39135l-6.7912-0.12326-6.7912-0.12339-4.6049-10.72-25.384-0.23662-2.3811 5.5902-2.3811 5.5902h-12.862zm38.413-20.867c0-0.49345-7.5988-18.145-7.9761-18.533-0.17684-0.18166-1.4532 2.3309-2.8363 5.5835-1.3832 3.2526-3.2269 7.5721-4.0972 9.599l-1.5824 3.6851h8.2466c4.5357 0 8.2461-0.15074 8.2454-0.335zm29.036-5.2485v-26.578l29.258 0.012 2.7964 0.65931c8.3899 1.9781 13.475 7.107 14.888 15.017l0.54255 3.0359-0.52846 3.2561c-1.3238 8.1565-6.4124 13.297-15.107 15.26l-3.2149 0.72603h-15.681v15.187h-12.954zm29.718-0.24957 2.2193-1.1429 0.9977-1.7605 0.99765-1.7605 6e-3 -2.6801 6e-3 -2.6801-0.78096-1.552c-0.42955-0.85363-1.652-2.1601-2.7166-2.9034l-1.9355-1.3514-15.56-0.29714v17.571l14.545-0.30022zm26.563 0.24957v-26.578h41.541v9.8146l-14.405 0.1179-14.405 0.11777v10.72l25.684 0.23705v9.8133h-25.933l0.12463 5.9185 0.12462 5.9185 30.151 0.23525v10.262h-42.881zm71.996 5.1491v-21.453h-17.421v-10.274h47.348v10.274h-16.965l-0.11598 21.329-0.11597 21.329-12.73 0.24789zm37.521-5.1491v-26.578h41.541v9.8146l-14.405 0.1179-14.405 0.11777 0.0558 0.78168c0.0307 0.42993 0.081 2.8923 0.11172 5.4718l0.0558 4.6902h24.952l0.14273 1.005c0.0785 0.55277 0.0784 2.7608-4.4e-4 4.9066l-0.14321 3.9015-25.011 0.23717 5e-5 5.8068 4e-5 5.8069 29.541 0.23553v10.262h-42.435v-26.578zm115.24 5.1368v-21.441h-17.421v-10.274h47.348v10.274h-17.421v42.881h-12.507zm-312.74-64.145c-7.5792-0.90748-9.8076-1.2586-14.294-2.2518-43.724-9.6811-76.964-45.629-83.785-90.612l-0.7451-4.9135-0.01235-9.157c-0.079199-55.133 38.898-100.4 93.329-108.38l5.2846-0.77549 9.157 0.0213 9.157 0.022 6.2812 0.95455c23.054 3.5035 44.268 14.468 60.764 31.404 2.2349 2.2947 7.7517 8.6948 12.259 14.222 4.5078 5.5277 11.674 14.212 15.925 19.299 4.2512 5.0866 7.7295 9.361 7.7295 9.4987 0 0.35467-19.167 24.112-19.556 24.24-0.17651 0.0581-2.733-2.6982-5.6811-6.1249l-5.3602-6.2304-23.116-0.0169c-12.714-0.01-23.116 0.0806-23.116 0.19976 0 0.11914 0.59082 1.1768 1.3129 2.3504 1.7189 2.7936 3.8404 9.2532 4.5114 13.737l0.53484 3.5734-0.28346 4.1069-0.28341 4.1069-1.1125 3.8388c-0.61182 2.1113-1.8146 5.2331-2.6728 6.9373-0.85821 1.7042-1.5604 3.2015-1.5604 3.3275 0 0.12599 7.363 0.28172 16.362 0.34618l16.362 0.11707-6.6321 8.1755-6.6321 8.1754-58.098-0.31634-2.9034-0.82409c-13.738-3.8991-22.944-12.507-27.017-25.261l-1.2125-3.7968-0.24193-4.7924-0.24192-4.7924 0.55756-3.4712c2.4154-15.037 13.987-27.074 29.108-30.28l2.9625-0.62799 35.117-0.0533c19.314-0.0295 35.117-0.18898 35.117-0.35493 0-0.6178-11.803-14.726-15.327-18.32-10.888-11.105-24.647-18.58-39.75-21.595l-5.0015-0.99842h-16.527l-5.1368 1.0236c-34.298 6.8347-58.681 33.368-63.01 68.568l-0.54205 4.4071 0.25962 6.9832 0.2596 6.9832 0.94447 4.4668c6.9381 32.813 32.621 57.108 65.215 61.692l5.1368 0.72243 14.74-0.50878 4.2435-0.91851c16.986-3.6767 29.689-11.652 43.685-27.424 6.7788-7.6396 6.7693-7.6279 43.423-53.217 9.6786-12.038 21.513-26.712 26.298-32.608 4.7855-5.8962 10.817-13.333 13.404-16.527 22.44-27.703 30.911-35.485 47.95-44.052 11.565-5.815 29.919-10.666 40.356-10.666h2.0037l4.1405 6.3652c2.2772 3.5009 4.5928 7.1108 5.1456 8.0222l1.0051 1.657-9.9799 14.653-3.7763 0.29025c-10.433 0.80198-22.915 5.1531-32.526 11.338-9.0354 5.8148-12.275 9.3598-41.541 45.461-4.4221 5.4549-12.829 15.824-18.683 23.043-5.8533 7.2185-12.025 14.833-13.715 16.921-28.673 35.433-36.038 44.427-41.148 50.247-18.031 20.539-39.278 32.954-63.94 37.36l-5.0058 0.89445-9.157 0.15262c-5.0363 0.084-9.8605 0.0685-10.72-0.0344zm7.4177-90.23 0.84587-2.9496 4.0749-0.0655 4.0748-0.0654 0.78182 3.0151c0.43002 1.6583 0.9646 3.0151 1.188 3.0151 1.8192 0 7.869-3.8687 9.7361-6.2261l1.3315-1.6812-2.6649-1.9306c-2.9042-2.1039-2.9731-2.2304-2.0129-3.6958 0.35869-0.54736 0.9338-2.0981 1.278-3.4461l0.62589-2.4508 6.9352-0.26298-0.30786-2.7212c-0.44449-3.9288-3.1725-10.612-4.3406-10.634-0.16174-4e-3 -1.3944 0.89077-2.7391 1.9862l-2.445 1.9917-0.82337-0.90979c-0.45288-0.50043-1.9612-1.6121-3.3519-2.4705l-2.5284-1.5606 0.92946-2.8588c0.51117-1.5723 0.80572-2.9825 0.65451-3.1337-1.043-1.043-7.3849-1.3913-11.044-0.60649l-2.2554 0.4837v0.56305c0 0.30972 0.39134 1.7005 0.86959 3.0906l0.86956 2.5275-1.3673 0.70711c-0.75204 0.38889-2.245 1.516-3.3176 2.5048l-1.9503 1.7977-4.4943-3.7629-0.64679 0.24817c-1.4825 0.5689-4.2203 8.1556-4.2488 11.773l-8e-3 0.98624 6.8586 0.26092 0.51073 2.2334c0.28087 1.2284 0.84824 2.8767 1.2608 3.663 0.41255 0.78624 0.75011 1.5052 0.75011 1.5976 0 0.0925-1.1939 1.033-2.653 2.0901l-2.653 1.922 1.2013 1.5084c1.8423 2.3133 7.9237 6.3065 9.7357 6.3928 0.27181 0.0123 0.87482-1.3038 1.34-2.9261zm225.97 88.913c-23.008-2.7922-45.476-13.765-61.981-30.27-3.4786-3.4785-21.078-24.315-34.489-40.833l-4.6148-5.6838 1.6778-2.0203c0.92277-1.1112 5.3565-6.5429 9.8526-12.071 4.4962-5.5277 8.3367-10.05 8.5345-10.05 0.19779 0 1.3345 1.206 2.5259 2.6801 26.502 32.788 35.704 43.827 39.698 47.624 11.972 11.382 28.665 19.096 43.955 20.312 2.0769 0.16527 4.0022 0.42462 4.2784 0.57642l0.50212 0.27586-4.8772 7.5008-4.8772 7.5007 4.71 7.3744c2.5905 4.0559 4.7101 7.4645 4.7101 7.5747 0 0.35441-4.5525 0.12134-9.6046-0.49178zm18.245-1.1927c-6.5024-10.234-8.191-13.112-7.9938-13.626 0.47131-1.2282 9.7432-15.311 10.081-15.311 10.187 0 28.48-7.6155 39.524-16.454 15.831-12.669 28.364-36.604 28.364-54.166 0-2.8482-0.36641-2.9818 8.032 2.9284l7.272 5.1174 7.8702-5.3649 7.8702-5.3648 0.13959 2.5924c0.36088 6.7014-3.0523 22.916-6.8454 32.52-15.37 38.917-48.48 64.005-90.768 68.776l-2.3309 0.263zm-18.491-71.488c-5.7862-6.446-20.309-22.619-32.273-35.94-11.964-13.321-21.752-24.325-21.752-24.453 0-0.27014 18.751-23.466 18.97-23.466 0.41316 0 16.491 17.355 31.036 33.501 4.7582 5.282 9.7381 10.785 11.067 12.229l2.4152 2.6257 0.59484-0.839c0.32716-0.46143 5.985-7.4722 12.573-15.579 6.588-8.1073 21.843-26.901 33.901-41.765 12.057-14.863 25.725-31.698 30.372-37.41l8.4492-10.385h39.26l-0.67582 0.7817c-0.58404 0.67554-12.225 15.026-30.89 38.08-2.8841 3.5623-11.958 14.819-20.164 25.014-16.512 20.515-27.418 34.026-37.51 46.471-3.6788 4.5364-12.294 15.183-19.146 23.658-6.8515 8.4758-13.188 16.262-14.082 17.304l-1.6247 1.893zm96.455-35.181-7.7549-5.3658-1.0184-5.8854c-0.56009-3.237-1.8187-8.2793-2.797-11.205-0.97822-2.9258-1.7786-5.5132-1.7786-5.7497 0-0.23653 4.75-6.377 10.556-13.646l10.556-13.216 0.82867 1.0728c6.1303 7.9359 12.813 28.964 14.483 45.576l0.2978 2.9619-5.7416 3.9262c-3.1578 2.1593-6.6716 4.5944-7.8084 5.4111l-2.0669 1.485zm-47.52-66.165c-5.4111-3.6115-16.93-7.8316-24.791-9.0823-2.5796-0.41047-5.2448-0.88174-5.9227-1.0473l-1.2325-0.30107 9.7853-14.669-0.40635-0.7056c-0.2235-0.38814-2.5029-3.9218-5.0654-7.8526l-4.6591-7.1469 1.3292-0.14263c10.137-1.0877 35.862 7.1094 49.205 15.679l3.0553 1.9622-6.143 7.5548c-8.9777 11.041-13.652 16.716-13.739 16.679-0.0418-0.0179-0.6791-0.43511-1.4161-0.92703z" fill="#00758d" stroke-width=".44668"/></svg>
